<?xml version="1.0" encoding="UTF-8" standalone="no"?>
<!-- Created with Inkscape (http://www.inkscape.org/) -->

<svg
   xmlns:dc="http://purl.org/dc/elements/1.1/"
   xmlns:cc="http://creativecommons.org/ns#"
   xmlns:rdf="http://www.w3.org/1999/02/22-rdf-syntax-ns#"
   xmlns:svg="http://www.w3.org/2000/svg"
   xmlns="http://www.w3.org/2000/svg"
   xmlns:sodipodi="http://sodipodi.sourceforge.net/DTD/sodipodi-0.dtd"
   xmlns:inkscape="http://www.inkscape.org/namespaces/inkscape"
   width="16px"
   height="16px"
   viewBox="0 0 16 16"
   version="1.1"
   id="SVGRoot"
   inkscape:version="0.92.4 (f8dce91, 2019-08-02)"
   sodipodi:docname="handmade.svg">
  <defs
     id="defs2136" />
  <sodipodi:namedview
     id="base"
     pagecolor="#ffffff"
     bordercolor="#666666"
     borderopacity="1.0"
     inkscape:pageopacity="0.0"
     inkscape:pageshadow="2"
     inkscape:zoom="16"
     inkscape:cx="5.0416251"
     inkscape:cy="-2.8081693"
     inkscape:document-units="px"
     inkscape:current-layer="layer1"
     showgrid="false"
     inkscape:window-width="1920"
     inkscape:window-height="966"
     inkscape:window-x="0"
     inkscape:window-y="27"
     inkscape:window-maximized="1"
     inkscape:grid-bbox="true" />
  <metadata
     id="metadata2139">
    <rdf:RDF>
      <cc:Work
         rdf:about="">
        <dc:format>image/svg+xml</dc:format>
        <dc:type
           rdf:resource="http://purl.org/dc/dcmitype/StillImage" />
        <dc:title></dc:title>
      </cc:Work>
    </rdf:RDF>
  </metadata>
  <g
     inkscape:label="Calque 1"
     inkscape:groupmode="layer"
     id="layer1">
    <g
       transform="matrix(0.24735538,0,0,0.24735538,0.08733122,0.05858186)"
       id="g70"
       style="fill:#3c9d9b;fill-opacity:1">
      <g
         id="g68"
         style="fill:#3c9d9b;fill-opacity:1">
        <g
           id="g4"
           style="fill:#3c9d9b;fill-opacity:1">
          <path
             inkscape:connector-curvature="0"
             d="m 24.797,64 c -1.339,0 -2.595,-0.518 -3.535,-1.459 l -19.8,-19.8 C -0.487,40.792 -0.487,37.62 1.461,35.671 L 29.905,7.227 c 1.396,-1.396 3.833,-2.333 6.065,-2.333 0.565,0 1.102,0.061 1.594,0.18 l 12.729,3.072 c 2.514,0.605 4.958,3.05 5.563,5.563 l 3.073,12.729 c 0.6,2.486 -0.347,5.851 -2.154,7.659 L 28.332,62.542 C 27.39,63.482 26.135,64 24.797,64 Z M 35.971,6.894 c -1.71,0 -3.623,0.719 -4.651,1.747 L 2.875,37.085 c -1.169,1.17 -1.168,3.072 10e-4,4.242 l 19.8,19.8 c 1.127,1.127 3.114,1.128 4.243,0 L 55.362,32.684 c 1.317,-1.318 2.062,-3.964 1.625,-5.776 L 53.914,14.179 C 53.483,12.394 51.61,10.522 49.825,10.09 L 37.096,7.017 C 36.757,6.936 36.378,6.894 35.971,6.894 Z"
             id="path2"
             style="fill:#3c9d9b;fill-opacity:1" />
        </g>
        <g
           id="g58"
           style="fill:#3c9d9b;fill-opacity:1">
          <g
             id="g8"
             style="fill:#3c9d9b;fill-opacity:1">
            <path
               inkscape:connector-curvature="0"
               d="m 36.464,39.853 c -0.256,0 -0.512,-0.098 -0.706,-0.292 -0.392,-0.391 -0.392,-1.023 -0.002,-1.414 0.128,-0.128 0.146,-0.277 0.146,-0.354 0,-0.077 -0.019,-0.226 -0.145,-0.352 -0.129,-0.129 -0.277,-0.147 -0.354,-0.147 v 0 c -0.078,0 -0.227,0.019 -0.354,0.146 -0.389,0.389 -1.023,0.391 -1.414,-0.002 -0.39,-0.391 -0.39,-1.023 0.002,-1.414 0.472,-0.471 1.1,-0.73 1.767,-0.73 0,0 0,0 10e-4,0 0.668,0 1.296,0.261 1.768,0.733 0.471,0.47 0.73,1.098 0.73,1.766 0,0.667 -0.26,1.295 -0.73,1.767 -0.196,0.195 -0.453,0.293 -0.709,0.293 z"
               id="path6"
               style="fill:#3c9d9b;fill-opacity:1" />
          </g>
          <g
             id="g12"
             style="fill:#3c9d9b;fill-opacity:1">
            <path
               inkscape:connector-curvature="0"
               d="m 35.756,36.316 c -0.257,0 -0.514,-0.099 -0.709,-0.295 -0.39,-0.392 -0.388,-1.024 0.004,-1.414 0.126,-0.126 0.146,-0.273 0.146,-0.351 0,-0.078 -0.02,-0.227 -0.146,-0.354 -0.196,-0.196 -0.514,-0.193 -0.71,10e-4 -0.393,0.39 -1.025,0.387 -1.414,-0.004 -0.39,-0.392 -0.388,-1.024 0.004,-1.414 0.975,-0.971 2.56,-0.97 3.532,10e-4 0.475,0.474 0.734,1.103 0.734,1.771 -0.001,0.668 -0.262,1.296 -0.735,1.767 -0.196,0.196 -0.451,0.292 -0.706,0.292 z"
               id="path10"
               style="fill:#3c9d9b;fill-opacity:1" />
          </g>
          <g
             id="g16"
             style="fill:#3c9d9b;fill-opacity:1">
            <path
               inkscape:connector-curvature="0"
               d="m 34.342,33.488 c -0.256,0 -0.513,-0.098 -0.708,-0.294 -0.39,-0.391 -0.39,-1.023 0.002,-1.414 0.127,-0.127 0.146,-0.275 0.146,-0.353 0,-0.078 -0.02,-0.226 -0.146,-0.353 -0.129,-0.129 -0.277,-0.147 -0.354,-0.147 -0.077,0 -0.225,0.019 -0.352,0.146 -0.391,0.393 -1.025,0.391 -1.414,0.002 -0.392,-0.391 -0.392,-1.023 -0.002,-1.414 0.943,-0.945 2.59,-0.946 3.535,-0.001 0.473,0.472 0.733,1.1 0.733,1.768 0,0.668 -0.261,1.296 -0.734,1.769 -0.194,0.194 -0.45,0.291 -0.706,0.291 z"
               id="path14"
               style="fill:#3c9d9b;fill-opacity:1" />
          </g>
          <g
             id="g20"
             style="fill:#3c9d9b;fill-opacity:1">
            <path
               inkscape:connector-curvature="0"
               d="m 30.808,32.782 c -0.256,0 -0.512,-0.098 -0.706,-0.292 C 29.71,32.1 29.71,31.467 30.1,31.076 c 0.195,-0.195 0.195,-0.514 0,-0.709 -0.195,-0.194 -0.513,-0.196 -0.708,0 -0.391,0.391 -1.023,0.391 -1.414,0 -0.391,-0.391 -0.391,-1.023 0,-1.414 0.975,-0.975 2.561,-0.976 3.537,0.001 0.974,0.975 0.974,2.561 10e-4,3.534 -0.196,0.197 -0.453,0.294 -0.708,0.294 z"
               id="path18"
               style="fill:#3c9d9b;fill-opacity:1" />
          </g>
          <g
             id="g24"
             style="fill:#3c9d9b;fill-opacity:1">
            <path
               inkscape:connector-curvature="0"
               d="m 27.271,49.045 c -0.256,0 -0.512,-0.098 -0.707,-0.293 -0.391,-0.391 -0.391,-1.023 0,-1.414 l 9.192,-9.192 c 0.391,-0.391 1.023,-0.391 1.414,0 0.391,0.391 0.391,1.023 0,1.414 l -9.192,9.192 c -0.195,0.195 -0.451,0.293 -0.707,0.293 z"
               id="path22"
               style="fill:#3c9d9b;fill-opacity:1" />
          </g>
          <g
             id="g28"
             style="fill:#3c9d9b;fill-opacity:1">
            <path
               inkscape:connector-curvature="0"
               d="m 31.161,40.914 c -0.256,0 -0.512,-0.098 -0.707,-0.293 -0.391,-0.39 -0.391,-1.023 0,-1.414 l 4.595,-4.598 c 0.391,-0.391 1.023,-0.391 1.414,0 0.391,0.39 0.391,1.023 0,1.414 l -4.595,4.598 c -0.195,0.195 -0.451,0.293 -0.707,0.293 z"
               id="path26"
               style="fill:#3c9d9b;fill-opacity:1" />
          </g>
          <g
             id="g32"
             style="fill:#3c9d9b;fill-opacity:1">
            <path
               inkscape:connector-curvature="0"
               d="m 29.038,38.792 c -0.256,0 -0.512,-0.098 -0.707,-0.293 -0.391,-0.391 -0.391,-1.023 0,-1.414 l 5.304,-5.304 c 0.391,-0.391 1.023,-0.391 1.414,0 0.391,0.391 0.391,1.023 0,1.414 l -5.304,5.304 c -0.195,0.195 -0.451,0.293 -0.707,0.293 z"
               id="path30"
               style="fill:#3c9d9b;fill-opacity:1" />
          </g>
          <g
             id="g36"
             style="fill:#3c9d9b;fill-opacity:1">
            <path
               inkscape:connector-curvature="0"
               d="m 21.26,38.085 c -0.256,0 -0.512,-0.098 -0.707,-0.293 -0.391,-0.391 -0.391,-1.023 0,-1.414 l 7.425,-7.425 c 0.391,-0.391 1.023,-0.391 1.414,0 0.391,0.391 0.391,1.023 0,1.414 l -7.425,7.425 c -0.196,0.195 -0.451,0.293 -0.707,0.293 z"
               id="path34"
               style="fill:#3c9d9b;fill-opacity:1" />
          </g>
          <g
             id="g40"
             style="fill:#3c9d9b;fill-opacity:1">
            <path
               inkscape:connector-curvature="0"
               d="m 26.917,36.67 c -0.256,0 -0.512,-0.098 -0.707,-0.293 -0.391,-0.391 -0.391,-1.023 0,-1.414 l 5.305,-5.303 c 0.391,-0.391 1.023,-0.391 1.414,0 0.391,0.391 0.391,1.023 0,1.414 l -5.305,5.303 c -0.195,0.195 -0.451,0.293 -0.707,0.293 z"
               id="path38"
               style="fill:#3c9d9b;fill-opacity:1" />
          </g>
          <g
             id="g44"
             style="fill:#3c9d9b;fill-opacity:1">
            <path
               inkscape:connector-curvature="0"
               d="m 22.675,50.945 c -1.921,0 -3.841,-0.731 -5.303,-2.193 -1.817,-1.817 -2.573,-4.402 -2.021,-6.914 0.118,-0.54 0.658,-0.88 1.19,-0.763 0.54,0.118 0.881,0.651 0.763,1.19 -0.404,1.844 0.149,3.739 1.482,5.072 2.146,2.146 5.636,2.145 7.778,0 0.391,-0.391 1.023,-0.391 1.414,0 0.391,0.391 0.391,1.023 0,1.414 -1.461,1.463 -3.382,2.193 -5.303,2.194 z"
               id="path42"
               style="fill:#3c9d9b;fill-opacity:1" />
          </g>
          <g
             id="g48"
             style="fill:#3c9d9b;fill-opacity:1">
            <path
               inkscape:connector-curvature="0"
               d="m 21.344,34.657 c -0.024,0 -0.049,-10e-4 -0.073,-0.003 -0.551,-0.039 -0.965,-0.519 -0.925,-1.069 0.01,-0.145 -0.043,-0.287 -0.146,-0.39 -0.194,-0.193 -0.513,-0.193 -0.709,0.002 -0.066,0.066 -0.112,0.15 -0.131,0.242 -0.111,0.542 -0.642,0.889 -1.181,0.778 -0.541,-0.111 -0.89,-0.64 -0.778,-1.181 0.097,-0.473 0.33,-0.905 0.675,-1.253 0.979,-0.976 2.565,-0.976 3.537,-0.004 0.515,0.515 0.779,1.225 0.727,1.949 -0.038,0.528 -0.477,0.929 -0.996,0.929 z"
               id="path46"
               style="fill:#3c9d9b;fill-opacity:1" />
          </g>
          <g
             id="g52"
             style="fill:#3c9d9b;fill-opacity:1">
            <path
               inkscape:connector-curvature="0"
               d="m 21.26,38.085 c -0.008,0 -0.016,0 -0.023,0 -0.552,-0.013 -0.989,-0.472 -0.977,-1.023 l 0.08,-3.428 c 0.013,-0.552 0.483,-1.015 1.023,-0.977 0.552,0.013 0.989,0.472 0.977,1.023 l -0.08,3.428 c -0.013,0.544 -0.458,0.977 -1,0.977 z"
               id="path50"
               style="fill:#3c9d9b;fill-opacity:1" />
          </g>
          <g
             id="g56"
             style="fill:#3c9d9b;fill-opacity:1">
            <path
               inkscape:connector-curvature="0"
               d="m 16.329,43.051 c -0.075,0 -0.151,-0.008 -0.228,-0.026 -0.538,-0.125 -0.873,-0.663 -0.747,-1.2 l 2.053,-8.813 c 0.125,-0.538 0.663,-0.88 1.2,-0.747 0.538,0.125 0.873,0.663 0.747,1.2 l -2.053,8.813 c -0.107,0.461 -0.518,0.773 -0.972,0.773 z"
               id="path54"
               style="fill:#3c9d9b;fill-opacity:1" />
          </g>
        </g>
        <g
           id="g62"
           style="fill:#3c9d9b;fill-opacity:1">
          <path
             inkscape:connector-curvature="0"
             d="m 44.603,27.46 v 0 c -0.003,0 -0.036,0 -0.039,0 L 37.587,27.406 C 37.041,27.402 36.599,26.96 36.595,26.414 l -0.052,-6.975 c -0.011,-1.193 0.444,-2.315 1.279,-3.158 0.836,-0.844 1.955,-1.308 3.149,-1.308 2.192,0.015 4.017,1.566 4.447,3.61 2.043,0.431 3.595,2.25 3.61,4.413 0.009,1.194 -0.446,2.315 -1.282,3.158 -0.834,0.843 -1.951,1.306 -3.143,1.306 z m -6.016,-2.046 5.993,0.046 0.022,1 v -1 c 0.655,0 1.269,-0.253 1.725,-0.714 0.458,-0.461 0.707,-1.077 0.702,-1.734 -0.01,-1.383 -1.141,-2.515 -2.521,-2.523 -0.547,-0.004 -0.989,-0.446 -0.993,-0.993 -0.009,-1.382 -1.141,-2.513 -2.522,-2.521 v 0 c -0.678,0 -1.292,0.254 -1.749,0.716 -0.457,0.461 -0.706,1.076 -0.7,1.733 z"
             id="path60"
             style="fill:#3c9d9b;fill-opacity:1" />
        </g>
        <g
           id="g66"
           style="fill:#3c9d9b;fill-opacity:1">
          <path
             inkscape:connector-curvature="0"
             d="m 43.722,23.62 c -0.979,0 -1.813,-0.282 -2.438,-0.907 -0.391,-0.391 -0.391,-1.023 0,-1.414 0.391,-0.391 1.023,-0.391 1.414,0 1.155,1.155 6.529,-0.87 12.326,-6.668 C 60.821,8.833 62.845,3.458 61.692,2.305 60.535,1.156 55.165,3.178 49.368,8.975 L 48.967,9.379 C 48.581,9.775 47.948,9.782 47.553,9.395 47.158,9.008 47.152,8.375 47.537,7.981 l 0.42,-0.423 c 5.419,-5.421 12.367,-9.452 15.149,-6.667 2.786,2.785 -1.246,9.732 -6.668,15.154 -4.206,4.206 -9.329,7.575 -12.716,7.575 z"
             id="path64"
             style="fill:#3c9d9b;fill-opacity:1" />
        </g>
      </g>
    </g>
  </g>
</svg>
