<?xml version="1.0" encoding="UTF-8" standalone="no"?>
<!-- Created with Inkscape (http://www.inkscape.org/) -->

<svg
   xmlns:dc="http://purl.org/dc/elements/1.1/"
   xmlns:cc="http://creativecommons.org/ns#"
   xmlns:rdf="http://www.w3.org/1999/02/22-rdf-syntax-ns#"
   xmlns:svg="http://www.w3.org/2000/svg"
   xmlns="http://www.w3.org/2000/svg"
   xmlns:sodipodi="http://sodipodi.sourceforge.net/DTD/sodipodi-0.dtd"
   xmlns:inkscape="http://www.inkscape.org/namespaces/inkscape"
   width="256px"
   height="256px"
   viewBox="0 0 256 256"
   version="1.1"
   id="SVGRoot"
   inkscape:version="0.92.4 (f8dce91, 2019-08-02)"
   sodipodi:docname="shipping.svg">
  <defs
     id="defs5274" />
  <sodipodi:namedview
     id="base"
     pagecolor="#ffffff"
     bordercolor="#666666"
     borderopacity="1.0"
     inkscape:pageopacity="0.0"
     inkscape:pageshadow="2"
     inkscape:zoom="1"
     inkscape:cx="128"
     inkscape:cy="128"
     inkscape:document-units="px"
     inkscape:current-layer="layer1"
     showgrid="false"
     inkscape:window-width="1920"
     inkscape:window-height="966"
     inkscape:window-x="0"
     inkscape:window-y="27"
     inkscape:window-maximized="1"
     inkscape:grid-bbox="true" />
  <metadata
     id="metadata5277">
    <rdf:RDF>
      <cc:Work
         rdf:about="">
        <dc:format>image/svg+xml</dc:format>
        <dc:type
           rdf:resource="http://purl.org/dc/dcmitype/StillImage" />
        <dc:title></dc:title>
      </cc:Work>
    </rdf:RDF>
  </metadata>
  <g
     inkscape:label="Calque 1"
     inkscape:groupmode="layer"
     id="layer1">
    <g
       transform="matrix(2.9295144,0,0,2.9295144,-18.52039,-2807.3895)"
       id="g4134"
       style="fill:#3c9d9b;fill-opacity:1">
      <path
         inkscape:connector-curvature="0"
         style="color:#000000;font-style:normal;font-variant:normal;font-weight:normal;font-stretch:normal;font-size:medium;line-height:normal;font-family:Sans;-inkscape-font-specification:Sans;text-indent:0;text-align:start;text-decoration:none;text-decoration-line:none;letter-spacing:normal;word-spacing:normal;text-transform:none;writing-mode:lr-tb;direction:ltr;baseline-shift:baseline;text-anchor:start;display:inline;overflow:visible;visibility:visible;opacity:1;fill:#3c9d9b;fill-opacity:1;stroke:none;stroke-width:1.34858632;marker:none;enable-background:accumulate"
         d="m 50,6.96875 c -15.339602,0 -28.79695,8.088526 -36.40625,20.1875 l -1.625,-7.375 A 1.0001,1.0001 0 0 0 10.75,19 1.0001,1.0001 0 0 0 10.03125,20.21875 l 2,9 A 1.0001,1.0001 0 0 0 13,30 h 10 a 1.0001,1.0001 0 1 0 0,-2 H 15.4375 C 22.715482,16.582336 35.447841,9.03125 50,9.03125 72.655519,9.03125 90.96875,27.34454 90.96875,50 a 1.03125,1.0312499 0 0 0 2.0625,0 C 93.03125,26.26364 73.736399,6.96875 50,6.96875 Z M 50,22 C 34.547876,22 22,34.54785 22,50 22,65.452 34.547868,78 50,78 65.452131,78 78,65.452 78,50 78,34.54787 65.452124,22 50,22 Z m -4.625,2.4375 c -3.409888,2.107721 -5.811606,5.333225 -7.40625,9.03125 -0.394446,0.914731 -0.725194,1.880573 -1.03125,2.84375 -2.260445,-0.970239 -4.391074,-2.187104 -6.40625,-3.53125 3.792587,-4.282013 8.971784,-7.292128 14.84375,-8.34375 z m 9.25,0 c 5.871965,1.051624 11.051163,4.061735 14.84375,8.34375 -2.015176,1.344146 -4.145805,2.561011 -6.40625,3.53125 C 62.756444,35.349323 62.425696,34.383481 62.03125,33.46875 60.436606,29.770725 58.034888,26.545221 54.625,24.4375 Z M 49,24.875 v 14.09375 c -3.709299,-0.107281 -7.082278,-0.799789 -10.21875,-1.9375 0.293755,-0.945272 0.619221,-1.898213 1,-2.78125 C 41.654216,29.906536 44.553131,26.483997 49,24.875 Z m 2,0 c 4.446869,1.608997 7.345784,5.031536 9.21875,9.375 0.380779,0.883037 0.706245,1.835978 1,2.78125 C 58.082278,38.168961 54.709299,38.861469 51,38.96875 Z M 29.25,34.34375 C 31.469735,35.837472 33.835042,37.1823 36.375,38.25 35.472305,41.784978 35.061839,45.487886 35,49 H 24.03125 C 24.242951,43.508663 26.150615,38.445868 29.25,34.34375 Z m 41.5,0 C 73.849386,38.445869 75.757049,43.50867 75.96875,49 H 65 c -0.06184,-3.512114 -0.472305,-7.215022 -1.375,-10.75 2.539958,-1.0677 4.905265,-2.412528 7.125,-3.90625 z m -32.5,4.625 c 3.295298,1.177836 6.862679,1.891258 10.75,2 V 49 H 37.03125 C 37.09112,45.699518 37.448857,42.237895 38.25,38.96875 Z m 23.5,0 C 62.551143,42.237895 62.908875,45.699518 62.96875,49 H 51 v -8.03125 c 3.887321,-0.108742 7.454702,-0.822164 10.75,-2 z m -53.875,10 A 1.0001,1.0001 0 0 0 7,50 c 0,23.7363 19.263599,43 43,43 15.342586,0 28.798164,-8.053955 36.40625,-20.15625 l 1.625,7.375 a 1.0001,1.0001 0 1 0 1.9375,-0.4375 l -2,-9 A 1.0001,1.0001 0 0 0 87,70 H 77 A 1.0001,1.0001 0 0 0 76.8125,70 1.0043849,1.0043849 0 0 0 77,72 h 7.5625 C 77.28096,83.402807 64.539483,91 50,91 27.344483,91 9,72.6555 9,50 A 1.0001,1.0001 0 0 0 7.875,48.96875 Z M 24.03125,51 H 35 c 0.0608,3.506848 0.476352,7.218752 1.375,10.75 -2.552982,1.067499 -4.92668,2.403453 -7.15625,3.90625 C 26.122633,61.551345 24.238079,56.492718 24.03125,51 Z M 37,51 h 12 v 8.03125 c -3.887321,0.107579 -7.454702,0.829591 -10.75,2 C 37.447545,57.765121 37.058984,54.302997 37,51 Z m 14,0 h 12 c -0.05898,3.302997 -0.447545,6.765121 -1.25,10.03125 -3.295298,-1.170409 -6.862679,-1.892421 -10.75,-2 z m 14,0 H 75.96875 C 75.761921,56.492718 73.877367,61.551345 70.78125,65.65625 68.55168,64.153453 66.177982,62.817499 63.625,61.75 64.523648,58.218752 64.939203,54.506848 65,51 Z M 48.53125,61.03125 c 0.152838,-0.0064 0.314826,0.0044 0.46875,0 V 75.125 c -4.443194,-1.614351 -7.346695,-5.06499 -9.21875,-9.40625 -0.37696,-0.874182 -0.708363,-1.785202 -1,-2.71875 3.006318,-1.083325 6.219726,-1.820293 9.75,-1.96875 z m 2.46875,0 c 3.709298,0.10606 7.082278,0.838525 10.21875,1.96875 -0.291637,0.933548 -0.62304,1.844568 -1,2.71875 C 58.346695,70.06001 55.443194,73.510649 51,75.125 Z m -14.0625,2.6875 c 0.306056,0.963166 0.636804,1.897781 1.03125,2.8125 1.594644,3.698046 3.996362,6.95475 7.40625,9.0625 -5.887136,-1.054344 -11.079833,-4.075383 -14.875,-8.375 2.025116,-1.352802 4.164531,-2.529686 6.4375,-3.5 z m 26.125,0 c 2.272969,0.970314 4.412384,2.147198 6.4375,3.5 -3.795167,4.299617 -8.987864,7.320656 -14.875,8.375 3.409888,-2.10775 5.811606,-5.364454 7.40625,-9.0625 0.394446,-0.914719 0.725194,-1.849334 1.03125,-2.8125 z"
         transform="translate(0,952.36218)"
         id="path4132" />
    </g>
  </g>
</svg>
